<svg width="13" height="11" viewBox="0 0 13 11" fill="none" xmlns="http://www.w3.org/2000/svg">
<path d="M10 9C10 10.1046 8.45177 11 4.99999 11C1.54821 11 0 10.1046 0 9C0 7.89543 1.54821 7 4.99999 7C8.45177 7 10 7.89543 10 9Z" fill="white"/>
<path d="M11 7C10.8126 7 10.6606 6.84805 10.6606 6.66061V3.33939C10.6606 3.15195 10.8126 3 11 3V3C11.1874 3 11.3394 3.15195 11.3394 3.33939V6.66061C11.3394 6.84805 11.1874 7 11 7V7ZM9.33939 5.33939C9.15195 5.33939 9 5.18744 9 5V5C9 4.81256 9.15195 4.66061 9.33939 4.66061H12.6606C12.848 4.66061 13 4.81256 13 5V5C13 5.18744 12.848 5.33939 12.6606 5.33939H9.33939Z" fill="white"/>
<g filter="url(#filter0_b_616_32)">
<path d="M8 3C8 4.65685 6.65685 6 5 6C3.34315 6 2 4.65685 2 3C2 1.34315 3.34315 0 5 0C6.65685 0 8 1.34315 8 3Z" fill="white" fill-opacity="0.2"/>
</g>
<defs>
<filter id="filter0_b_616_32" x="-28" y="-30" width="66" height="66" filterUnits="userSpaceOnUse" color-interpolation-filters="sRGB">
<feFlood flood-opacity="0" result="BackgroundImageFix"/>
<feGaussianBlur in="BackgroundImageFix" stdDeviation="15"/>
<feComposite in2="SourceAlpha" operator="in" result="effect1_backgroundBlur_616_32"/>
<feBlend mode="normal" in="SourceGraphic" in2="effect1_backgroundBlur_616_32" result="shape"/>
</filter>
</defs>
</svg>
