<svg width="40" height="37" viewBox="0 0 40 37" fill="none" xmlns="http://www.w3.org/2000/svg">
<path fill-rule="evenodd" clip-rule="evenodd" d="M18.2693 36.4633C18.7794 36.8122 19.3824 36.9992 20 37C20.6175 36.9995 21.2205 36.8128 21.7307 36.4643C29.287 31.3238 32.5589 27.7991 34.3637 25.5955C38.2077 20.8992 40.0509 16.0767 39.9989 10.8533C39.9384 4.86781 35.1473 0 29.3187 0C25.0805 0 22.1451 2.39055 20.4356 4.38508C20.3814 4.44756 20.3145 4.49767 20.2394 4.532C20.1642 4.56634 20.0826 4.58411 20 4.58411C19.9174 4.58411 19.8358 4.56634 19.7607 4.532C19.6855 4.49767 19.6186 4.44756 19.5644 4.38508C17.8549 2.39247 14.9195 0 10.6813 0C4.85273 0 0.0616413 4.86781 0.00106765 10.8524C-0.0508527 16.0748 1.7904 20.8973 5.63634 25.5946C7.44106 27.7982 10.713 31.3228 18.2693 36.4633ZM30.2936 5.76596C29.7998 5.51854 29.199 5.71826 28.9516 6.21202C28.7042 6.70579 28.9039 7.30663 29.3976 7.55405C30.4433 8.07799 30.7564 8.24844 30.9838 8.47635C31.2114 8.70443 31.3817 9.01859 31.9045 10.0665C32.1511 10.5606 32.7516 10.7614 33.2458 10.5148C33.74 10.2682 33.9407 9.66774 33.6941 9.17355L33.6278 9.04054C33.2007 8.18316 32.8856 7.55072 32.3995 7.06365C31.9134 6.57642 31.2819 6.26047 30.4263 5.8324L30.2936 5.76596Z" fill="currentColor"/>
</svg>
