<svg xmlns="http://www.w3.org/2000/svg" width="50" height="50" viewBox="0 0 50 50">
  <g id="buscar" transform="translate(-121 -1432)">
    <path id="Elipse_23" data-name="Elipse 23" d="M20,4.651a15.349,15.349,0,0,0-10.853,26.2A15.349,15.349,0,1,0,30.853,9.147,15.248,15.248,0,0,0,20,4.651M20,0A20,20,0,1,1,0,20,20,20,0,0,1,20,0Z" transform="translate(121 1432)" fill="currentColor"/>
    <path id="Línea_41" data-name="Línea 41" d="M12.5,15a2.492,2.492,0,0,1-1.768-.732l-12.5-12.5a2.5,2.5,0,0,1,0-3.536,2.5,2.5,0,0,1,3.536,0l12.5,12.5A2.5,2.5,0,0,1,12.5,15Z" transform="translate(156 1467)" fill="currentColor"/>
  </g>
</svg>
