<svg width="147" height="142" viewBox="0 0 147 142" fill="none" xmlns="http://www.w3.org/2000/svg">
<path d="M20 92.5C14.9232 98.7484 10.9225 101.469 7.00001 108.5C3.83758 114.168 0.158499 117.564 1.00001 124C1.63441 128.852 3.44176 131.641 7.00001 135C11.0086 138.784 14.595 139.417 20 140.5C28.2881 142.161 33.2791 139.967 41.5 138C51.3036 135.655 56.8777 133.721 65.5 128.5C73.0918 123.903 76.2285 119.737 83 114C90.4979 107.647 97.3327 106.148 102 97.5C104.434 92.9895 106.363 90.1125 106 85C105.702 80.8045 105.127 77.8127 102 75C98.4409 71.7989 94.7474 73.114 90 72.5C82.0604 71.4731 77.3085 74.2663 69.5 72.5C65.0417 71.4915 61.9407 71.5092 58.5 68.5C56.1761 66.4675 54 62 54 62V53.5C54 53.5 53.808 43.1095 56 37C57.9225 31.6416 63.5 24.5 63.5 24.5C63.5 24.5 70.1617 17.206 75.5 14C80.8383 10.794 83.5225 6.13081 90 3.49999C96.7545 0.756667 108.5 0.999992 108.5 0.999992C113.121 0.219019 120.5 0.999992 120.5 0.999992C122.1 0.999992 128.5 2.66666 131.5 3.49999C134.5 4.33333 139.137 4.80118 142.5 7.99999C144.54 9.94086 145.493 11.37 146.5 14" stroke="currentColor"/>
</svg>
