<svg viewBox="0 0 217 244" fill="none" xmlns="http://www.w3.org/2000/svg">
<path d="M156.956 213.297C145.702 217.068 139.381 219.15 128.088 222.803C105.616 230.072 93.7398 237.388 70.3504 240.815C61.1218 242.168 55.8761 242.851 46.5465 242.817C37.611 242.784 32.1116 243.942 23.7555 240.815C14.914 237.507 9.06901 234.488 4.50979 226.305C0.191368 218.555 0.530429 212.521 1.97746 203.79C3.80893 192.74 8.97638 187.435 16.1585 178.773C23.3407 170.11 31.859 164.763 31.859 164.763C31.859 164.763 41.7698 155.437 49.0788 150.754C62.5774 142.105 72.4019 141.543 87.5703 136.244C98.774 132.329 105.363 130.866 116.439 126.737C129.903 121.719 137.413 118.713 150.081 112.345C158.738 107.994 163.681 105.594 171.628 100.337C179.664 95.0207 184.245 91.9432 190.845 85.3268C197.249 78.908 200.243 74.7974 204.822 67.3144C209.381 59.8635 212.246 55.56 214.139 47.3007C216.117 38.6736 217.078 33.2078 214.139 24.7852C211.976 18.586 210.202 14.8046 204.822 10.2753C198.864 5.26001 193.709 3.96282 185.604 2.26978C177.5 0.57674 158.185 0.57674 150.081 2.26978" stroke="currentColor" stroke-linecap="round"/>
</svg>
