<svg xmlns="http://www.w3.org/2000/svg" version="1.1" width="600px" height="600px" xlink="http://www.w3.org/1999/xlink" style="overflow:hidden!important;"><g id="svga-group-wrapper" transform="scale(3 3)"><g id="svga-group-backs-single"></g><g id="svga-group-subwrapper" ><g id="svga-group-hair-back" ><path id="SvgjsPath17551" d="M100.5,100.5h-1v-1h1V100.5z" fill="#caa478" stroke-width="none" opacity="1" stroke="none"></path></g><g id="svga-group-humanbody-single"><path id="SvgjsPath17391" d="M195.417 199.778c-2.196-4.746-8.195-11.779-14.86-13.722 -8.239-2.403-26.837-5.308-33.733-6.923 -5.528-1.296-16.662-11.294-20.564-14.65 -0.7-0.6-1.273-1.839-1.287-2.76 -0.139-10.864 4.195-39.724 4.195-39.724H100 70.833c0 0 4.334 28.859 4.193 39.724 -0.011 0.921-0.587 2.16-1.285 2.76 -3.902 3.356-15.036 13.354-20.564 14.65 -6.897 1.615-25.495 4.619-33.733 7.022 -6.667 1.942-12.664 8.876-14.86 13.622 -3.708 8.008-4.584 22.5-4.584 35h100 100C200 222.278 199.123 207.786 195.417 199.778z" fill="#cda184" stroke-width="none" opacity="1" stroke="none"></path><path id="SvgjsPath17392" d="M159.156 184.058c24.342 3.542 34.586 8.708 37.794 50.721H200c0-12.5-0.877-26.992-4.583-35 -2.196-4.746-8.195-11.779-14.86-13.722 -8.239-2.403-26.837-5.308-33.733-6.923 -5.528-1.296-18.242-12.069-21.643-16.35 3.36 4.704 12.791 15.605 21.054 18.46C150.188 182.61 153.48 183.232 159.156 184.058zM53.766 181.244c8.263-2.854 17.693-13.756 21.054-18.46 -3.4 4.28-16.114 15.054-21.643 16.35 -6.896 1.615-25.494 4.619-33.733 7.022 -6.665 1.942-12.664 8.876-14.86 13.622 -3.706 8.008-4.583 22.5-4.583 35h3.05c3.188-41.744 13.475-47.183 37.794-50.721C46.52 183.232 49.813 182.61 53.766 181.244z" fill="#dcbaa4" stroke-width="none" opacity="1" stroke="none"></path><path id="SvgjsPath17393" d="M95.646 197.62c0 0-5.074-1.609-7.083-2.379 -10.449-4.009-44.395-6.607-44.395-6.607s35.754 1.419 43.644 2.779c-0.458-4.767-3.017-20.004-3.017-20.004s5.149 16.815 6.409 21.057C91.878 194.734 95.646 197.62 95.646 197.62zM106.445 196.278c-0.089 0.073-0.191 0.168-0.302 0.268C106.256 196.461 106.358 196.372 106.445 196.278zM95.646 197.62c0 0 2.893 2.992 4.347 3.03 1.91 0.051 4.828-2.899 6.151-4.104 -1.265 0.957-4.159 1.391-5.31 1.436C99.504 198.033 95.646 197.62 95.646 197.62zM116.664 190.101c-1.545 0.248-4.386 0.789-4.386 0.789l2.287-14.89c-0.646 3.071-4.474 16.211-8.12 20.278 1.91-1.616 6.158-2.391 8.324-2.704 10.236-1.484 10.232-1.483 41.062-4.94C155.831 188.634 126.76 188.479 116.664 190.101z" fill="#be8a67" stroke-width="none" opacity="1" stroke="none"></path><path id="SvgjsPath17394" d="M195.417 199.778c-2.196-4.746-8.195-11.779-14.86-13.722 -8.239-2.403-26.837-5.308-33.733-6.923 -5.528-1.296-16.662-11.294-20.564-14.65 -0.7-0.6-1.273-1.839-1.287-2.76 -0.139-10.864 4.195-39.724 4.195-39.724H100 70.833c0 0 4.334 28.859 4.193 39.724 -0.011 0.921-0.587 2.16-1.285 2.76 -3.902 3.356-15.036 13.354-20.564 14.65 -6.897 1.615-25.495 4.619-33.733 7.022 -6.667 1.942-12.664 8.876-14.86 13.622 -3.708 8.008-4.584 22.5-4.584 35h100 100C200 222.278 199.123 207.786 195.417 199.778z" fill="none" stroke="#9f6037" stroke-width="1.5" opacity="1"></path></g><g id="svga-group-chinshadow-single"><path id="SvgjsPath17688" d="M75.085 163.986c6.598 3.574 14.825 5.886 25.017 5.88 10.183 0.006 18.332-2.283 24.839-5.829 -0.428-0.713-0.708-1.563-0.72-2.304 -0.126-9.877 3.345-34.021 4.076-38.983H71.703c0.73 4.963 4.202 29.106 4.074 38.982C75.768 162.441 75.497 163.279 75.085 163.986z" fill="url(#SvgjsLinearGradient17689)" opacity="1"></path></g><g id="svga-group-clothes-single" ><path id="SvgjsPath17673" d="M-4.807 234.6c1.472-10.806-0.208-11.777 4.116-33.015 1.228-7.384 2.66-13.32 8.141-10.607 4.045-6.008 15.513-6.566 57.339-20.658v-0.258c0.278-1.001 2.706-4.267 3.099-9.897 0.383-5.449 2.718-9.56 5.614-11.604 -6.746 23.685 23.144 14.953 24.208 31.108 0.084 1.273-0.974 10.149-0.813 10.969 3.355-0.679 6.721-0.684 10.359-0.645 -3.928-15.24-0.545-16.872 7.344-19.838 9.564-3.591 12.873-7.169 12.01-20.697 4.57 4.109 1.516 9.7 7.174 17.534 36.249 13.159 50.02 16.863 56.963 21.507 5.981-4.517 9.697 2.65 17.292 46.103C136.218 235.212 54.269 235.12-4.807 234.6z" fill="#cbe9ee" stroke-width="none" opacity="1" stroke="none"></path><path id="SvgjsPath17674" d="M92.119 197.235c0.304-0.029 3.375-5.505 3.375-5.505 5.764-2.145 18.375 2.005 34.019-10.176C117.994 199.61 97.143 186.737 92.119 197.235zM70.115 179.378c8.754 10.018 23.629 13.732 26.773 10.686C96.885 190.135 79.619 189.396 70.115 179.378z" fill="#a8d7df" stroke-width="none" opacity="1" stroke="none"></path><path id="SvgjsPath17675" d="M73.607 149.423c0 0 0.705 6.944 0.82 11.739C72.326 156.482 71.897 155.232 73.607 149.423z" fill="#87c5cf" stroke-width="none" opacity="1" stroke="none"></path><path id="SvgjsPath17676" d="M4.781 194.15C0 207.902-0.398 222.744-3.298 234.612c-0.693-0.006-0.823 0.293-1.509 0.287 1.472-10.806-0.208-12.355 4.116-33.593 1.228-7.384 2.66-13.32 8.141-10.607 4.045-6.008 15.513-6.566 57.339-20.658v-0.258c0.278-1.001 2.706-4.267 3.099-9.897 0.345-4.904 2.622-9.431 5.25-11.325 -5.936 6.453-1.918 18.345-8.092 22.976C53.103 178.967 18.588 187.846 4.781 194.15zM190.747 188.499c-6.943-4.644-20.714-8.348-56.963-21.507 -5.658-7.834-2.604-13.425-7.174-17.534 0.063 1.001-0.018 0.613 0 1.51 2.161-0.43 2.695 15.819 7.443 18.193 19 9 45.261 17.317 59.521 22.632 6.636 10.021 8.157 26.964 13.401 42.817 1.067-0.009 0 0 1.063-0.009C200.444 191.149 196.729 183.982 190.747 188.499zM125.992 162.465c-7.33 12.798-21.646 4.662-20.242 19.81C108.488 167.635 121.171 175.921 125.992 162.465zM97.372 184.295c2.628-16.491-15.517-13.785-23.633-23.296C78.812 171.409 95.553 168.227 97.372 184.295z" fill="#f1fcfd" stroke-width="none" opacity="1" stroke="none"></path><path id="SvgjsPath17677" d="M196.139 187.915c-1.581-1.609-3.779-1.259-5.409-0.029 -7.133-4.756-26.235-9.496-56.63-21.609 0 0-2.289-2.963-3.469-8.017 -0.783-3.353-0.308-7.087-4.192-9.838 -0.749 9.286-0.411 16.736-9.51 20.304 -8.959 3.582-14.71 3.744-10.319 20.76 -2.301-0.026-6.457-0.018-9.318 0.563 -0.058-0.295 1.027-8.769 0.918-10.412 -1.014-15.376-28.515-9.625-24.93-27.551 0.33-1.649 0.454-2.542 0.187-3.81 -3.67 1.92-5.337 6.074-5.847 9.51 -0.556 3.889 0.319 4.852-3.32 12.13 0 0.011-0.01 0.021-0.01 0.03 -0.17 0.05-0.35 0.11-0.53 0.17 -41.434 13.791-52.827 14.785-56.48 20.22 -5.931-2.941-7.458 5.121-8.46 11.15 -4.398 21.597-2.602 22.344-4.2 33.61 1 0 109.661 0.96 212.96 0.01 0.36 0 0.71-0.01 1.06-0.01C208.319 233.75 202.222 193.853 196.139 187.915zM117.52 170.155c9.877-4.015 9.506-9.654 9.367-19.766 3.437 1.52 0.914 8.914 6.792 16.516 0 4.854-1.267 9.955-4.229 13.46 -5.51 6.101-14.719 9.317-22.23 9.13C104.685 173.337 107.914 174.091 117.52 170.155zM68.349 159.005c0.062-2.714 2.16-8.263 4.9-10.1 -8.723 23.076 22.427 15.489 23.73 31.92 0.027 0.457-0.38 8.333-0.39 8.84 -16.104-1.896-23.674-5.555-31.64-19.189 0.02-0.04 0.04-0.08 0.06-0.12 0.01 0.01 0.01 0 0.01 0C67.547 165.299 68.017 164.151 68.349 159.005zM-4.591 234.455c1.436-5.179 1.375-14.908 4.04-28.63 1.58-7.847 1.629-17.345 7.48-15.03 0.02 0 0.03 0.011 0.04 0.011 3.516 8.49 11.016 31.499 11.33 32.5 0.155 0.456 2.074 8.248 2.56 9.89 -2.124-16.99-11.493-39.731-12.99-42.14 4.051-4.15 3.094-2.325 35.92-12.7 7.099-2.245 19.409-7.106 20.27-7.601 9.185 19.855 28.548 19.105 32.33 19.521 -11.02 3.397-4.729 31.249-3.77 40.96 -0.163-7.896-3.465-29.31 1.25-36.84 0 0 0.648-1.301 3.14-2.38 6.946-2.627 15.325 2.951 29.95-7.34 4.758-4.518 7.13-7.39 7.13-17.53 24.029 11.337 46.962 16.747 56.11 21.7 -0.013 0.081-0.05 0.414-0.05 0.42 -1.544 13.248 1.243-1.169-4.4 28.689 -1.47 8.541-0.406 5.667-1.13 13.28 1.481-7.851-0.067-3.756 2.12-13.12 4.586-19.338 3.858-22.946 4.16-29.39 3.326-2.396 5.107 0.213 6.399 3.96 4.836 14.695 7.982 34.133 10.09 41.76C141.558 233.843 61.242 233.874-4.591 234.455zM107.847 202.681c-3.239 1.259-7.306 0.944-10.905 0.433C103.167 202.238 107.208 202.645 107.847 202.681z" fill="#6ab4c0" stroke-width="none" opacity="1" stroke="none"></path></g><g id="svga-group-head" ><g id="svga-group-ears-left" ><path id="SvgjsPath17668" d="M47.218 81.505c-0.967-2.487-8.082-6.002-11.21-5.447 -3.538 0.627-4.838 4.356-4.369 7.119 1.103 6.487 3.996 9.219 5.296 14.286 1.096 4.273 3.433 6.732 4.588 8.548 1.42 2.228 2.73 7.341 3.023 8.087 0.463 1.18 2.103 4.043 5.002 3.896 3.333-0.172 7.545-6.688 7.614-8.135C57.544 102.009 49.733 87.979 47.218 81.505z" fill="#cda184" stroke="#9f6037" stroke-width="1.5" opacity="1"></path><path id="SvgjsPath17669" d="M47.953 107.96c0 0 0.429-1.071-0.094-2.022 -0.672-1.223-2.423-3.468-2.821-4.811 -0.325-1.098-0.16-3.445-0.213-4.593 -0.094-2.03-1.492-3.42-1.927-4.585 -2.914-7.793-6.792-12.623-9-13.626 -1.633 3.989-0.339 6.907 1.94 13.045 -1.375-8.342-0.054-10.95-0.054-10.95s4.018 3.465 6.001 11.172c0.359 1.391-1.111 4.294-0.83 5.705 0.352 1.772 4.184 5.201 5.257 6.635C47.049 105.047 47.953 107.96 47.953 107.96z" fill="#9f6037" stroke-width="none" opacity="1" stroke="none"></path></g><g id="svga-group-ears-right" ><path id="SvgjsPath17670" d="M152.52 81.505c0.967-2.487 8.082-6.002 11.211-5.447 3.539 0.627 4.838 4.356 4.369 7.119 -1.104 6.487-3.996 9.219-5.297 14.286 -1.096 4.273-3.434 6.732-4.588 8.548 -1.42 2.228-2.73 7.341-3.023 8.087 -0.463 1.18-2.104 4.043-5.002 3.896 -3.332-0.172-7.545-6.688-7.613-8.135C142.193 102.009 150.006 87.979 152.52 81.505z" fill="#cda184" stroke="#9f6037" stroke-width="1.5" opacity="1"></path><path id="SvgjsPath17671" d="M151.785 107.96c0 0-0.43-1.071 0.094-2.022 0.672-1.223 2.424-3.468 2.82-4.811 0.324-1.098 0.16-3.445 0.215-4.593 0.094-2.03 1.49-3.42 1.926-4.585 2.914-7.793 6.793-12.623 9-13.626 1.633 3.989 0.338 6.907-1.939 13.045 1.375-8.342 0.053-10.95 0.053-10.95s-4.018 3.465-6.002 11.172c-0.357 1.391 1.111 4.294 0.83 5.705 -0.352 1.772-4.184 5.201-5.256 6.635C152.689 105.047 151.785 107.96 151.785 107.96z" fill="#9f6037" stroke-width="none" opacity="1" stroke="none"></path></g><g id="svga-group-faceshape-wrap" ><g id="svga-group-faceshape-single" ><path id="SvgjsPath17685" d="M100.103 0.867C66.481 0.814 39.286 28.147 39.234 61.929c-0.008 5.365 0.669 10.569 1.953 15.53l0.004 0c0.011 0.054 8.121 28.575 9.808 43.634 1.244 11.102 12.587 40.796 49.103 40.773 36.515 0.022 46.938-29.431 48.897-40.773 2.58-14.929 10.001-43.58 10.013-43.634l0.005 0c1.283-4.961 1.961-10.165 1.952-15.53C160.919 28.147 133.723 0.814 100.103 0.867z" fill="#cda184" stroke-width="none" opacity="1"></path><path id="SvgjsPath17686" d="M135.855 12.494c11.761 11.195 19.223 27.819 19.246 46.408 0.008 5.365-0.602 10.569-1.761 15.53l-0.005 0c-0.011 0.054-6.717 28.706-9.05 43.634 -1.771 11.343-11.189 40.795-44.184 40.773 -32.996 0.021-43.246-29.672-44.369-40.773 -1.526-15.059-8.853-43.581-8.863-43.634l-0.004 0c-1.162-4.961-1.772-10.165-1.765-15.53 0.026-18.59 7.489-35.215 19.25-46.41 -15.199 11.093-25.086 29.09-25.117 49.438 -0.008 5.365 0.669 10.569 1.953 15.53l0.004 0c0.011 0.054 8.121 28.575 9.808 43.634 1.244 11.102 12.587 40.796 49.103 40.773 36.515 0.022 46.938-29.431 48.897-40.773 2.58-14.929 10.001-43.58 10.013-43.634l0.005 0c1.283-4.961 1.961-10.165 1.952-15.53C160.939 41.583 151.053 23.587 135.855 12.494z" fill="#c59575" stroke-width="none" opacity="1"></path><path id="SvgjsPath17687" d="M100.103 0.867C66.481 0.814 39.286 28.147 39.234 61.929c-0.008 5.365 0.669 10.569 1.953 15.53l0.004 0c0.011 0.054 8.121 28.575 9.808 43.634 1.244 11.102 12.587 40.796 49.103 40.773 36.515 0.022 46.938-29.431 48.897-40.773 2.58-14.929 10.001-43.58 10.013-43.634l0.005 0c1.283-4.961 1.961-10.165 1.952-15.53C160.919 28.147 133.723 0.814 100.103 0.867z" fill="none" stroke="#9f6037" stroke-width="1.5" opacity="1"></path></g></g><g id="svga-group-mouth-single" ><path id="SvgjsPath17657" d="M99.999 139.499c-5.771 0-7.125-2.385-7.125-2.385h14.253C107.127 137.114 105.074 139.499 99.999 139.499z" fill="url(#SvgjsLinearGradient17658)" opacity="1"></path><path id="SvgjsPath17661" d="M82.714 133.245c3.826-0.701 8.662-2.674 11.707-2.744 1.573-0.038 3.262 0.642 4.961 0.859 1.18 0.153 4.529-0.853 5.732-0.859 3.155-0.018 8.781 2.043 12.174 2.744 0.185 0.043 0 0 0 0s-7.021 4.444-17.287 4.444C88.381 137.689 82.714 133.245 82.714 133.245S82.525 133.283 82.714 133.245z" fill="#e2929b" stroke-width="none" opacity="1" stroke="none"></path><path id="SvgjsPath17662" d="M117.761 133.204c-0.258-0.056-0.84-0.021-1.045-0.016 -0.422 0.013-0.756-0.085-1.682-0.094 -1.033-0.009-5.48-0.199-6.948-0.25 -2.954-0.106-5.31 0.49-8.118 0.49 -2.811 0-5.368-0.653-8.323-0.548 -1.466 0.056-5.709 0.293-6.743 0.308 -0.921 0.013-1.282 0.098-1.709 0.089 -0.199-0.007-0.827-0.037-1.072 0.034 -0.203 0.064-0.124 0.414 0.04 0.505 0.395 0.22 1.938-0.171 2.719-0.161 1.078 0.011 5.335-0.037 6.826-0.09 2.888-0.104 5.464 0.606 8.262 0.606 2.801 0 5.173-0.657 8.063-0.553 1.485 0.053 5.941 0.044 7.021 0.036 0.783-0.01 2.45 0.33 2.849 0.161C118.091 133.641 117.989 133.254 117.761 133.204z" fill="#b43e4c" stroke-width="none" opacity="1" stroke="none"></path><path id="SvgjsPath17663" d="M87.409 134.113c1.815-0.054 3.684-0.205 5.5-0.162 2.239 0.052 4.365 0.521 6.604 0.6 2.417 0.085 4.659-0.36 7.028-0.515 1.975-0.123 4.068 0.044 6.05 0.084C103.299 137.905 93.387 136.744 87.409 134.113zM106.888 132.305c1.823-0.063 3.693 0.062 5.516 0.103 -9.196-2.434-7.134-0.943-11.926-0.519 -2.092 0.186-3.736-0.851-5.776-0.851 -2.21 0.052-4.438 0.812-6.352 1.335 1.779-0.06 3.608-0.194 5.392-0.104 2.181 0.105 4.295 0.526 6.498 0.526C102.489 132.796 104.64 132.375 106.888 132.305z" fill="#eaa3ab" stroke-width="none" opacity="1" stroke="none"></path><path id="SvgjsPath17664" d="M87.409 134.113c1.815-0.054 3.684-0.205 5.5-0.162 2.239 0.052 4.365 0.521 6.604 0.6 2.417 0.085 4.659-0.36 7.028-0.515 1.975-0.123 4.068 0.044 6.05 0.084C103.299 137.905 93.387 136.744 87.409 134.113zM106.888 132.305c1.823-0.063 3.693 0.062 5.516 0.103 -9.196-2.434-7.134-0.943-11.926-0.519 -2.092 0.186-3.736-0.851-5.776-0.851 -2.21 0.052-4.438 0.812-6.352 1.335 1.779-0.06 3.608-0.194 5.392-0.104 2.181 0.105 4.295 0.526 6.498 0.526C102.489 132.796 104.64 132.375 106.888 132.305z" fill="#f1b4bb" stroke-width="none" opacity="1" stroke="none"></path></g><g id="svga-group-eyes-left" ><g id="svga-group-eyesback-left"><path id="SvgjsPath17579" d="M78.863 89.23c-4.31 0.755-7.656 0.71-10.688-0.204 -3.127-0.943-7.188-4.825-8.596-8.495 3.715-0.277 11.349-0.597 14.89-0.154 4.688 0.586 9.474 2.406 12.305 5.236 -0.016 0.294-0.053 0.583-0.087 0.872C84.401 88.032 81.166 88.826 78.863 89.23z" fill="url(#SvgjsRadialGradient17580)" opacity="1"></path></g><g id="svga-group-eyesiriswrapper-left" transform="translate(0.25 0.25)"><g id="svga-group-eyesiriscontrol-left" ><g id="svga-group-eyesiris-left" ><path id="SvgjsPath17637" d="M79.788 85.588c-0.869 3.192-4.162 5.073-7.361 4.196 -3.197-0.876-5.084-4.178-4.214-7.371 0.869-3.195 4.168-5.076 7.365-4.198C78.772 79.09 80.659 82.392 79.788 85.588z" fill="#9b1d1b" stroke="#6d0200" stroke-width="0.5" opacity="1"></path><path id="SvgjsPath17638" d="M78.717 82.673c-0.569 0.873-2.036 0.925-3.276 0.117 -1.24-0.808-1.784-2.17-1.215-3.043 0.568-0.872 2.036-0.924 3.276-0.117C78.74 80.439 79.284 81.802 78.717 82.673L78.717 82.673z" fill="url(#SvgjsLinearGradient17639)" opacity="0.7"></path></g></g></g><g id="svga-group-eyesfront-left"><path id="SvgjsPath17604" d="M55.8 85.001c0 13.808 8.06 24.999 18 24.999s18-11.191 18-24.999C91.8 71.192 83.74 60 73.8 60S55.8 71.192 55.8 85.001zM59.58 80.531c3.715-0.277 11.349-0.597 14.89-0.154 4.952 0.619 10.04 2.6 12.788 5.71 -2.289 1.82-5.897 2.705-8.395 3.143 -4.31 0.755-7.656 0.71-10.688-0.204C65.049 88.083 60.988 84.201 59.58 80.531z" fill="#cda184" stroke-width="none" opacity="1" stroke="none"></path><path id="SvgjsPath17605" d="M55.942 83.916c0.027 8.284 8.484 14.962 18.902 14.919 10.414-0.047 18.836-6.796 18.813-15.08 -0.027-8.285-8.486-14.963-18.902-14.92C64.339 68.882 55.919 75.631 55.942 83.916zM59.58 80.531c3.715-0.277 11.349-0.597 14.89-0.154 4.952 0.619 10.04 2.6 12.788 5.71 -2.289 1.82-5.897 2.705-8.395 3.143 -4.31 0.755-7.656 0.71-10.688-0.204C65.049 88.083 60.988 84.201 59.58 80.531z" fill="url(#SvgjsRadialGradient17606)" opacity="1"></path><path id="SvgjsPath17610" d="M59.58 80.531c3.715-0.277 11.349-0.597 14.89-0.154 4.952 0.619 10.04 2.6 12.788 5.71 -2.289 1.82-5.897 2.705-8.395 3.143 -4.31 0.755-7.656 0.71-10.688-0.204C65.049 88.083 60.988 84.201 59.58 80.531z" fill="url(#SvgjsRadialGradient17611)" opacity="1"></path><path id="SvgjsPath17614" d="M67.563 77.096c10.603-0.48 13.849 1.478 18.339 4.3C78.442 77.023 69.03 77.042 67.563 77.096zM59.597 84.153c2.854 5.494 4.797 4.894 7.531 6.058 0.025 0.009-1.51-0.579-2.664-1.196C61.474 87.296 61.108 86.564 59.597 84.153z" fill="#9f6037" stroke-width="none" opacity="1" stroke="none"></path><path id="SvgjsPath17615" d="M58.468 79.966c2.857 5.992 4.761 9.926 14.332 10.071 7.283 0.109 11.794-0.564 15.584-3.374 -3.395-5.194-7.754-6.771-13.57-7.358C68.915 78.709 58.468 79.966 58.468 79.966zM60.505 80.827c3.467-0.258 10.59-0.557 13.895-0.144 4.621 0.577 9.369 2.426 11.934 5.328 -2.137 1.699-5.504 2.524-7.834 2.933 -4.021 0.705-7.145 0.663-9.973-0.19C65.608 87.875 61.819 84.252 60.505 80.827z" fill="#782c76" stroke-width="none" opacity="1" stroke="none"></path></g></g><g id="svga-group-eyes-right" ><g id="svga-group-eyesback-right"><path id="SvgjsPath17587" d="M120.737 89.23c4.31 0.755 7.656 0.71 10.688-0.204 3.127-0.943 7.188-4.825 8.596-8.495 -3.715-0.277-11.349-0.597-14.89-0.154 -4.688 0.586-9.474 2.406-12.305 5.236 0.016 0.294 0.053 0.583 0.087 0.872C115.199 88.032 118.435 88.826 120.737 89.23z" fill="url(#SvgjsRadialGradient17588)" opacity="1"></path></g><g id="svga-group-eyesiriswrapper-right" transform="translate(-0.25 0.25)"><g id="svga-group-eyesiriscontrol-right" ><g id="svga-group-eyesiris-right" ><path id="SvgjsPath17642" d="M131.788 85.588c-0.869 3.192-4.162 5.073-7.362 4.196 -3.196-0.876-5.084-4.178-4.214-7.371 0.869-3.195 4.169-5.076 7.365-4.198C130.772 79.09 132.658 82.392 131.788 85.588z" fill="#9b1d1b" stroke="#6d0200" stroke-width="0.5" opacity="1"></path><path id="SvgjsPath17643" d="M130.717 82.673c-0.569 0.873-2.036 0.925-3.276 0.117 -1.239-0.808-1.784-2.17-1.215-3.043 0.568-0.872 2.035-0.924 3.275-0.117C130.74 80.439 131.284 81.802 130.717 82.673L130.717 82.673z" fill="url(#SvgjsLinearGradient17644)" opacity="0.7"></path></g></g></g><g id="svga-group-eyesfront-right"><path id="SvgjsPath17625" d="M125.801 60c-9.94 0-18 11.193-18 25.001 0 13.808 8.06 24.999 18 24.999s18-11.191 18-24.999C143.801 71.192 135.741 60 125.801 60zM131.425 89.026c-3.031 0.914-6.378 0.959-10.688 0.204 -2.497-0.438-6.105-1.323-8.395-3.143 2.748-3.11 7.836-5.091 12.788-5.71 3.541-0.443 11.175-0.123 14.89 0.154C138.612 84.201 134.552 88.083 131.425 89.026z" fill="#cda184" stroke-width="none" opacity="1" stroke="none"></path><path id="SvgjsPath17626" d="M124.846 68.835c-10.416-0.043-18.875 6.635-18.902 14.92 -0.023 8.284 8.398 15.033 18.813 15.08 10.418 0.043 18.875-6.635 18.902-14.919C143.682 75.631 135.262 68.882 124.846 68.835zM131.425 89.026c-3.031 0.914-6.378 0.959-10.688 0.204 -2.497-0.438-6.105-1.323-8.395-3.143 2.748-3.11 7.836-5.091 12.788-5.71 3.541-0.443 11.175-0.123 14.89 0.154C138.612 84.201 134.552 88.083 131.425 89.026z" fill="url(#SvgjsRadialGradient17627)" opacity="1"></path><path id="SvgjsPath17631" d="M140.021 80.531c-3.715-0.277-11.349-0.597-14.89-0.154 -4.952 0.619-10.04 2.6-12.788 5.71 2.289 1.82 5.897 2.705 8.395 3.143 4.31 0.755 7.656 0.71 10.688-0.204C134.552 88.083 138.612 84.201 140.021 80.531z" fill="url(#SvgjsRadialGradient17632)" opacity="1"></path><path id="SvgjsPath17635" d="M113.697 81.396c4.491-2.822 7.736-4.781 18.34-4.3C130.57 77.042 121.158 77.023 113.697 81.396zM135.137 89.016c-1.154 0.617-2.689 1.205-2.664 1.196 2.734-1.164 4.678-0.564 7.531-6.058C138.492 86.564 138.127 87.296 135.137 89.016z" fill="#9f6037" stroke-width="none" opacity="1" stroke="none"></path><path id="SvgjsPath17636" d="M124.787 79.305c-5.816 0.587-10.176 2.165-13.57 7.358 3.79 2.809 8.301 3.483 15.584 3.374 9.57-0.145 11.474-4.079 14.331-10.071C141.132 79.966 130.686 78.709 124.787 79.305zM131.074 88.754c-2.828 0.853-5.951 0.895-9.973 0.19 -2.33-0.409-5.697-1.234-7.834-2.933 2.564-2.902 7.313-4.751 11.934-5.328 3.305-0.413 10.428-0.114 13.895 0.144C137.781 84.252 133.992 87.875 131.074 88.754z" fill="#782c76" stroke-width="none" opacity="1" stroke="none"></path></g></g><g id="svga-group-facehighlight-single" ><path id="SvgjsPath17383" d="M141 113.974c0.035 22.622-18.292 40.994-40.938 41.025 -22.642 0.037-41.028-18.273-41.063-40.9 -0.035-22.62 18.292-41.064 40.937-41.1C122.579 72.964 140.967 91.349 141 113.974z" fill="url(#SvgjsRadialGradient17384)" opacity="1"></path><path id="SvgjsPath17387" d="M137.5 53.999c0 20.711-16.789 37.5-37.499 37.5 -20.711 0-37.501-16.789-37.501-37.5s16.79-37.5 37.501-37.5C120.711 16.499 137.5 33.288 137.5 53.999z" fill="url(#SvgjsRadialGradient17388)" opacity="1"></path></g><g id="svga-group-eyebrows-left" ><path id="SvgjsPath17647" d="M56.113 72.739c32.178-9.407 39.48 9.836 32.802 3.849C81.977 70.368 65.958 70.92 56.113 72.739z" fill="#caa478" stroke-width="none" opacity="1" stroke="none"></path></g><g id="svga-group-eyebrows-right" ><path id="SvgjsPath17648" d="M143.889 72.731c-9.304-1.701-22.773-2.38-30.946 2.53 -1.01 0.606-5.017 4.041-3.951 1.625C110.929 72.486 123.744 66.882 143.889 72.731z" fill="#caa478" stroke-width="none" opacity="1" stroke="none"></path></g><g id="svga-group-nose-single" ><path id="SvgjsPath17665" d="M109.895 118.829c0.19-0.512 0.307-1.047 0.396-1.584 0.033-0.198-0.229-0.929-0.252-0.697 -0.101 0.941-0.612 2.262-1.6 2.551 -1.133 0.329-1.783-0.056-1.886-1.172 -0.104-1.125 0.297-2.619-0.109-3.665 -0.264-0.676-0.856-1.226-1.464-1.606 0.458 2.04 0.823 4.704-1.128 6.164 0.167 0.199 0.319 0.293 0.467 0.333 -0.153 0.026-0.308 0.059-0.467 0.13 -0.771 0.352-3.586 1.015-4.404 0.657 -0.193-0.085-0.622-0.152-1.16-0.204 -0.362-0.315-1.023-1.138-1.332-1.328 -1.215-0.751-1.851-2.069-1.926-3.472 -0.163-2.955 1.373-6.245 4.861-7.528 -3.578-1.004-4.064 4.863-6.408 6.172 -1.402 0.783-2.741 1.479-2.716 3.229 0.008 0.579 0.078 1.419 0.34 2.122 -0.421-0.591-0.699-1.125-0.739-0.653 -0.342 3.979 3.522 2.884 5.042 3.158 1.255 0.227 3.412 0.544 4.459 0.563 1.137 0.02 2.858-0.377 3.981-0.563 1.087-0.181 2.985 0.037 4.381-0.59 0.824-0.371 2.006-0.612 2.006-2.211l-0.402 0.326C109.855 118.916 109.878 118.874 109.895 118.829z" fill="#be8a67" stroke-width="none" opacity="1" stroke="none"></path><path id="SvgjsPath17666" d="M90.642 116.322c0.15-0.48 0.371-0.961 0.73-1.324 -0.631 1.095-0.719 2.661-0.152 3.799 0.697 1.399 1.94 1.104 3.131 0.563 1.191-0.54 1.188-0.938 2.426-0.526 0.963 0.319 1.737 0.795 2.797 0.793 1.132-0.002 1.977-0.471 3.03-0.798 1.278-0.38 2.357-0.162 3.559 0.378 1.13 0.509 2.426 1.15 3.301-0.117 0.773-1.148 0.69-2.922 0.017-4.092 1.51 1.542 1.145 5.938-1.745 5.384 -0.397-0.08-1.098-0.563-1.451-0.469 -0.64 0.175-1.445 0.007-2.091-0.054 -1.175-0.112-2.195-0.108-3.312 0.174 -0.429 0.1-0.869 0.158-1.309 0.154 -0.525-0.007-1.057-0.268-1.556-0.237 -1.4 0.086-1.984-0.214-3.39-0.124 -1.197 0.077-1.955 1.13-3.142 0.177C90.436 119.125 90.275 117.566 90.642 116.322 90.719 116.078 90.497 116.814 90.642 116.322zM101.211 107.662c0.557 0.115 1.063 0.367 1.531 0.684 -1.391-2.209-4.931-1.408-6.339 0.345C97.843 107.926 99.562 107.296 101.211 107.662 101.478 107.719 100.678 107.543 101.211 107.662z" fill="#9f6037" stroke-width="none" opacity="1" stroke="none"></path><path id="SvgjsPath17667" d="M93.079 117.678c-0.216-1.586 0.406-3.049-0.995-1.972C91.214 116.375 93.418 120.168 93.079 117.678z" fill="#dcbaa4" stroke-width="none" opacity="1" stroke="none"></path></g><g id="svga-group-beardwrap" ><g id="svga-group-beard-single" ><path id="SvgjsPath17560" d="M91.49 171.47c-11.62-3.9-10.97-10.89-15.45-16.04 -4.66-5.18-13.82-11.51-9.41-17.53 7.96 4.33 10.59-6.08 13.51-9.71 5.09-5.82 12.72-7.51 19.81-5.07 8.63-2.72 17.4-0.14 22.06 8.45 2.69 4.92 5.13 9.36 11.35 6.32 3.51 4.83-1.58 9.78-6.06 14.15 -1.72 1.68-3.35 3.26-4.37 4.72 -3.54 4.77-3.27 10.85-14.36 14.68C104.43 172.96 96.13 173.19 91.49 171.47zM87.22 130.94c-4.6 1.81-6.77 5.91-5.81 10.97 1.03 5.45 5.16 9.89 9.19 9.89 0 0 0 0 0 0 5.38 0 8.33-7.58 9.39-12.8 6.82 32.37 33.15-6.07 8.51-9.19C106.67 129.57 92.7 128.69 87.22 130.94z" fill="#caa478" stroke-width="none" opacity="1" stroke="none"></path><path id="SvgjsPath17561" d="M66.61 137.77c2.9 7.97 10.25 10.98 12.88 15.74 3.33 6.04 5.32 11.58 11.02 17.72 -10.67-3.97-10.22-10.76-14.54-15.73 -2.21-2.45-3.56-3.53-5.88-5.9C66.68 146.08 63.56 141.83 66.61 137.77 68.32 138.71 65.34 137.98 66.61 137.77zM133.39 137.77c-2.9 7.97-10.25 10.98-12.88 15.74 -3.33 6.04-5.32 11.58-11.02 17.72 10.67-3.97 10.21-10.76 14.54-15.73 2.21-2.45 3.56-3.53 5.88-5.9C133.32 146.08 136.44 141.83 133.39 137.77 131.68 138.71 134.66 137.98 133.39 137.77z" fill="#bb8f5c" stroke-width="none" opacity="1" stroke="none"></path><path id="SvgjsPath17562" d="M133.4 137.77c-6.27 3.1-8.65-1.4-11.37-6.38 -4.51-8.49-13.65-11.08-22.04-8.36 -6.74-2.32-14.53-1.05-19.92 5.1 -2.96 3.67-5.52 14.04-13.46 9.64 -3.05 4.06 0.07 8.31 3.48 11.83 2.32 2.37 3.67 3.45 5.88 5.9 4.45 5.12 3.84 12.16 15.49 16.07 4.86 1.8 13.22 1.41 17.15-0.02 11.12-3.84 10.91-9.99 14.41-14.72C126.69 151.56 138.45 144.55 133.4 137.77zM121.75 155.94c-2.28 3.09-3.72 8.2-6.99 10.6 -3.53 2.72-8.05 4.86-13.13 5.26 -0.08 0.04-3.22 0.06-4.75-0.15 -4.55-0.46-10.36-3.68-13.27-6.65 -2.87-3.54-3.29-6.95-6.91-11.02 -4.63-5.09-13.23-9.6-9.97-15.79 1.63 0.75 5.14 2.73 8.86-1.09 3.04-3.16 6.77-17.71 24.42-13.58 8.36-1.96 17.01 0.6 21.03 8.41 3.38 6.07 6.12 9.34 12.22 6.27C137 144.8 125.97 149.85 121.75 155.94zM116.78 132.81c-4.23-4.11-10.93-3.84-16.77-3.3 -9.28-0.86-18.98 0.09-19.5 9.52 -0.74 12.08 15.39 22.46 19.49 0.92 4.27 21.62 20.22 11.05 19.49-0.92 -0.09-1.64-0.47-2.69-0.48-2.69C118.62 135.08 117.86 133.79 116.78 132.81zM101.03 142.48c-0.49-1.56-0.86-3.05-1.03-4 -0.37 2.11-1.35 5.42-2.64 7.91 -8.48 16.3-24.93-9.53-10.1-15.35 5.48-2.25 19.46-1.35 21.24-1.12C131.47 132.82 109.6 167.98 101.03 142.48z" fill="#9c692e" stroke-width="none" opacity="1" stroke="none"></path></g></g><g id="svga-group-mustache-single" ><path id="SvgjsPath17399" d="M100,18.13L100,18.13L100,18.13L100,18.13z" fill="#2a232b" stroke-width="none" opacity="1"></path></g><g id="svga-group-hair-front" ><path id="SvgjsPath17553" d="M80.709 34.557c4.12-3.041 9.715-3.693 16.558-2.323 5.292-3.294 15.869-3.224 21.709 0.397l3.457-11.98 -52.341 4.046L80.709 34.557z" fill="#ab7b44" stroke-width="none" opacity="1" stroke="none"></path><path id="SvgjsPath17554" d="M37.21 85.336C30.116 58.218 25.398 27.461 56.669 4.26c8.853-6.426 19.862-7.773 27.538-7.773 7.993 0 14.477 1.499 16.341 2.514l0.208 0.113 0.226-0.074c3.118-0.994 6.957-1.523 11.105-1.523 12.853 0 30.869 5.057 42.893 19.25 9.14 10.794 17.774 30.855 7.105 65.169h-0.021c0 0-0.148 0.557-0.178 0.658 -3.457-1.473-6.839-2.475-10.114-3.446 -9.063-2.684-16.885-5.001-21.658-16.18 -0.145-0.351-0.324-1.477-0.555-2.901 -1.291-7.984-4.308-26.68-17.779-32.709 -1.935-0.786-3.569-1.147-5.168-1.147 -3.145 0-6.156 1.448-9.458 4.553 -2.634-1.141-4.917-1.696-6.969-1.696 -6.327 0-11.363 5.228-17.386 18.047 -1.894 3.907-3.031 7.417-4.033 10.513 -2.585 7.979-4.453 13.746-16.391 20.029 -2.946 1.61-6.195 3.212-9.339 4.763C40.965 83.44 38.999 84.41 37.21 85.336z" fill="#caa478" stroke-width="none" opacity="1" stroke="none"></path><path id="SvgjsPath17555" d="M105.614 18.714c28.229-5.106 32.704 52.078 48.686 56.757 -5.396-12.071-9.353-23.835-10.437-39.693 5.436 18.565 9.51 26.904 15.007 32.183 1.502-24.864-0.523-39.573-10.287-57.487 -11.435-9.425-25.767-12.957-36.496-12.957 -4.148 0-7.987 0.529-11.105 1.523l-0.226 0.074L100.548-1c-1.864-1.016-8.348-2.514-16.341-2.514 -6.564 0-15.56 0.996-23.566 5.299C44.492 23.09 37.96 48.715 42.436 74.345c4.621-11.663 6.659-23.953 13.344-38.567 -4.635 14.005-4.171 23.974-8.25 35.83 18.181-11.603 12.193-26.447 24.42-41.95 5.769-7.744 24.145-8.777 25.393 0.941 0.185-0.172 0.368-0.331 0.552-0.493C98.856 25.257 100.164 19.701 105.614 18.714z" fill="#bb8f5c" stroke-width="none" opacity="1" stroke="none"></path><path id="SvgjsPath17556" d="M57.586 48.567c2.488-7.87 2.448-9.899 3.634-14.406C68.14 7.454 91.744 13.425 95.94 19.491c0.239 0.326 0.37 0.502 0.37 0.502s-0.153-0.164-0.432-0.462c-3.573-4.105-21.731-9.218-30.48 8.441C61.823 35.41 61.965 39.194 57.586 48.567zM67.335 10.732c1.352-1.039 2.308-1.662 2.308-1.662 9.619-6.638 18.8-7.501 28.365-4.885C96.314 3.531 93.51 2.37 89.562 1.91 54.374-0.636 48.087 38.732 45.361 47.047 50.857 35.582 53.241 21.804 67.335 10.732zM128.416 21.714c-8.457-10.152-18.242-13.946-30.749-8.106 28.427-9.983 38.845 27.518 44.156 36.784C138.385 41.934 138.155 33.32 128.416 21.714zM95.291 12.393c11.223-9.433 43.926-13.407 59.469 34.102 0.619 1.863 0.991 2.984 0.991 2.984C145.496-6.657 105.58 1.864 95.291 12.393z" fill="#ab7b44" stroke-width="none" opacity="1" stroke="none"></path><path id="SvgjsPath17557" d="M148.279 73.767c-8.26-3.9-13.81-8.055-16.069-17.367 -2.688-11.38-8.134-37.877-29.107-32.761 19.153-6.747 27.954 14.231 31.313 32.346C136.066 64.264 140.184 68.684 148.279 73.767zM72.228 42.1c0.617-1.427 1.069-2.362 1.069-2.362 5.09-10.386 9.833-15.72 20.634-12.144 -10.938-4.992-17.75 1.245-22.704 11.35 -11.184 23.131-1.875 18.542-22.472 36.376C68.963 61.573 63.204 62.519 72.228 42.1zM160.167 34.585c2.018 13.188 2.591 19.962-0.066 40.124C164.908 55.843 163.698 47.01 160.167 34.585zM38.838 48.115c0.58-8.917 2.583-20.242 8.558-27.817 -14.095 14.207-11.714 45.655-7.811 57.147C38.436 71.414 38.339 54.667 38.838 48.115z" fill="#d9ba97" stroke-width="none" opacity="1" stroke="none"></path><path id="SvgjsPath17558" d="M100.813-1.388c-4.242-2.307-28.469-6.317-44.469 5.297C25.671 26.666 29.109 56.563 36.87 86.039c4.602-2.415 10.669-5.203 15.765-7.989 16.905-8.898 13.998-17.051 20.636-30.759 8.125-17.298 14.163-19.455 23.996-15.057 5.525-5.315 9.678-6.338 14.285-4.468 15.916 7.123 17.097 32.984 18.091 35.366 6.675 15.644 19.279 14.258 32.586 20.117 0.081-0.283 0.162-0.565 0.235-0.856h0.009C185.522 8.91 123.951-8.793 100.813-1.388zM164.491 59.637c-0.694 9.357-2.821 21.306-2.965 22.217 -11.304-6.112-22.484-4.722-29.412-20.063 -0.037-0.099-0.007 0.036-0.037-0.182 -4.062-30.844-22.014-44.849-34.902-30.933 -8.594-4.358-14.148-2.036-19.747 4.896C63.429 52.96 70.694 64.903 51.31 76.41c-4.381 2.677-10.079 5.823-13.695 8.081C32.947 61.476 25.994 26.095 62.417 3.194c19.817-10.18 35.362-4.166 37.066-4.166 4.143 1.02 5.63 1.567 9.75 3.413 -3.416-1.949-5.337-2.747-6.782-3.256C131.262-4.742 169.093 13.586 164.491 59.637z" fill="#9c692e" stroke-width="none" opacity="1" stroke="none"></path></g><g id="svga-group-glasses-single" ><path id="SvgjsPath17649" d="M92.44 90.22c0 8.84-7.39 16.6-20.48 16.6 -16.38 0-20.65-11.45-20.65-24.83l0.05-1.04c0.27-5.62 4.9-9.15 10.53-9.15h20.35c5.47 0 9.93 3.49 10.03 8.96L92.44 90.22zM107.56 90.22c0 8.84 7.39 16.6 20.48 16.6 16.38 0 20.65-11.45 20.65-24.83l-0.05-1.04c-0.27-5.62-4.9-9.15-10.53-9.15h-20.35c-5.47 0-9.93 3.49-10.03 8.96L107.56 90.22z" fill="url(#SvgjsLinearGradient17650)" opacity="1"></path><path id="SvgjsPath17653" d="M92.27 80.78l0.03 1.84c-14.9-1.38-29.39-1.68-40.99-0.32 0-0.1 0-0.2 0-0.3l0.05-1.04c0.27-5.62 4.9-9.15 10.53-9.15h20.35C87.7 71.81 92.16 75.31 92.27 80.78zM148.64 80.96c-0.27-5.62-4.9-9.15-10.53-9.15h-20.35c-5.47 0-9.93 3.49-10.03 8.96l-0.07 3.61c14.53 2 28.61 4.82 39.91 7.92 0.79-3.17 1.11-6.67 1.11-10.32L148.64 80.96z" fill="#5b1d0d" stroke-width="none" opacity="0.1"></path><path id="SvgjsPath17654" d="M155.94 74.61c0-4.73-45.04-9.31-48.35-0.2 -0.25 0.69-0.44 0.9-1.1 0.93 -0.8 0.03-3.31-0.22-6.49-0.22 -3.09 0-5.59 0.23-6.41 0.22 -0.72-0.01-0.92-0.21-1.18-0.93 -3.3-9.11-48.35-4.52-48.35 0.2 0 2.88-0.4 4.35 0.8 4.72 2.08 0.64 2.96 2.54 3.59 7.18 0.31 2.29 2.36 2.06 4.14 2.06 -3.18-14.86 4.56-15.07 9.4-15.67 11.34-1.4 27.9-1.44 29.86 9.83 0.88 5.06 0.3 7.87-0.82 12.57 1.08-0.02 1.65-0.07 2.39-0.75 1.35-2.71 1.86-5.18 2.4-9.67 0.12-0.97-0.3-1.45-0.89-2.09 -0.25-0.26-0.37-0.62-0.34-0.98 0.02-0.32 0.17-0.56 0.38-0.77 0.81-0.84 3.76-0.95 5.02-1.01 1.31 0.06 4.38 0.17 5.11 1.11 0.15 0.19 0.26 0.4 0.28 0.67 0.03 0.36-0.09 0.71-0.34 0.98 -0.59 0.64-1.01 1.12-0.89 2.09 0.54 4.49 1.05 6.96 2.4 9.67 0.74 0.68 1.31 0.73 2.39 0.75 -1.12-4.7-1.7-7.51-0.82-12.57 1.97-11.27 18.52-11.23 29.86-9.83 4.85 0.6 12.58 0.81 9.4 15.67 1.78 0 3.83 0.23 4.14-2.06 0.63-4.65 1.52-6.54 3.59-7.18C156.33 78.96 155.94 77.49 155.94 74.61z" fill="#2c2c2c" stroke-width="none" opacity="1" stroke="none"></path><path id="SvgjsPath17655" d="M100 75.11c-3.09 0-5.59 0.23-6.41 0.22l1.39 5.72c0.81-0.84 3.76-0.95 5.02-1.01 1.31 0.06 4.38 0.17 5.11 1.11l1.38-5.83C105.69 75.36 103.18 75.11 100 75.11z" fill="#1d1a1a" stroke-width="none" opacity="1" stroke="none"></path><path id="SvgjsPath17656" d="M106.44 75.82c-6.3-0.57-9.99-0.33-12.81 0C98.04 74.74 102.53 74.86 106.44 75.82zM154.12 73.51c-2.04-1.42-9.85-3.12-17.13-3.54 -2.01-0.13-3.55-0.16-3.55-0.16 14.36 2.05 15.9 2.67 15.9 2.67 6.04 1.48 5.13 1.28 5.36 6.08C154.88 76.52 155.21 74.45 154.12 73.51zM145.18 74.44c1.15 0.66 2.72 1.78 3.33 5.12 0.3 1.71 0.32 4.59-0.21 6.37C150.09 81.79 149.49 76.05 145.18 74.44zM109.52 78.93c-1.14 1.7-2.31 3.75-2.29 8.09 0.01 3.25 0.75 6.23 1.73 8.29C107.3 90.4 106.94 83.76 109.52 78.93zM113.14 71.52c1.34-0.44 3.61-1.05 3.61-1.05 0 0-7.58 0.74-8.56 4.23C109.11 72.55 113.14 71.52 113.14 71.52zM45.3 78.56c0.24-4.79-0.68-4.59 5.36-6.08 0 0 1.54-0.62 15.9-2.67 0 0-1.54 0.04-3.55 0.16 -7.28 0.41-15.09 2.12-17.13 3.54C44.79 74.45 45.12 76.52 45.3 78.56zM51.71 85.93c-0.53-1.78-0.52-4.66-0.21-6.37 0.6-3.34 2.17-4.46 3.33-5.12C50.51 76.05 49.91 81.79 51.71 85.93zM91.04 95.31c0.97-2.06 1.72-5.05 1.73-8.29 0.02-4.34-1.15-6.39-2.29-8.09C93.06 83.76 92.7 90.4 91.04 95.31zM91.81 74.7c-0.98-3.48-8.56-4.23-8.56-4.23 0 0 2.27 0.6 3.61 1.05C86.86 71.52 90.89 72.55 91.81 74.7z" fill="#3b3b3b" stroke-width="none" opacity="1" stroke="none"></path></g></g></g><rect id="SvgjsRect17368" width="200" height="15" x="0" y="185" fill="#ecf0f1" opacity="0.5" style="display:none;"></rect><text id="SvgjsText17369" font-family="&quot;Roboto&quot;, &quot;Helvetica Neue&quot;, Helvetica, Arial, sans-serif" style="font-size:0.84em;font-family:&quot;Roboto&quot;, &quot;Helvetica Neue&quot;, Helvetica, Arial, sans-serif;text-anchor:middle;font-weight:400;display:none;" font-size="0.84em" text-anchor="middle" font-weight="400" fill="#000000" x="100" y="185"><tspan id="SvgjsTspan17370" dy="1.2em" x="100" style="font-size:0.84em;font-family:&quot;Roboto&quot;, &quot;Helvetica Neue&quot;, Helvetica, Arial, sans-serif;text-anchor:middle;font-weight:400;">www.creartuavatar.com</tspan></text></g><defs id="SvgjsDefs17333"><radialGradient id="SvgjsRadialGradient17384" cx="100" cy="114" r="41" gradientUnits="userSpaceOnUse" class="svga-on-canvas-facehighlight-gradient-single-0"><stop id="SvgjsStop17385" stop-opacity="0.5" stop-color="#dcbaa4" offset="0" ></stop><stop id="SvgjsStop17386" stop-opacity="0" stop-color="#cda184" offset="0.9" ></stop></radialGradient><radialGradient id="SvgjsRadialGradient17388" cx="100" cy="54" r="37" gradientUnits="userSpaceOnUse" class="svga-on-canvas-facehighlight-gradient-single-1"><stop id="SvgjsStop17389" stop-opacity="0.5" stop-color="#dcbaa4" offset="0" ></stop><stop id="SvgjsStop17390" stop-opacity="0" stop-color="#cda184" offset="0.9" ></stop></radialGradient><radialGradient id="SvgjsRadialGradient17477" cx="-582.838" cy="-519.099" r="59.745" gradientTransform="matrix(0.0991 8.856319e-004 -0.0011 0.0991 131.1134 135.9855)" gradientUnits="userSpaceOnUse" class="svga-on-canvas-eyesiris-gradient-left-2"><stop id="SvgjsStop17478" stop-opacity="1" stop-color="#ffffff" offset="0" ></stop><stop id="SvgjsStop17479" stop-opacity="0" stop-color="#ffffff" offset="1" ></stop></radialGradient><linearGradient id="SvgjsLinearGradient17483" x1="122.67" y1="88.268" x2="123.606" y2="87.152" gradientTransform="matrix(1 0 0 1 -52 0)" gradientUnits="userSpaceOnUse" class="svga-on-canvas-eyesiris-gradient-left-5"><stop id="SvgjsStop17484" stop-opacity="1" stop-color="#ffffff" offset="0" ></stop><stop id="SvgjsStop17485" stop-opacity="0" stop-color="#ffffff" offset="1" ></stop></linearGradient><linearGradient id="SvgjsLinearGradient17487" x1="127.212" y1="82.296" x2="126.463" y2="83.189" gradientTransform="matrix(1 0 0 1 -52 0)" gradientUnits="userSpaceOnUse" class="svga-on-canvas-eyesiris-gradient-left-6"><stop id="SvgjsStop17488" stop-opacity="1" stop-color="#ffffff" offset="0" ></stop><stop id="SvgjsStop17489" stop-opacity="0" stop-color="#ffffff" offset="1" ></stop></linearGradient><linearGradient id="SvgjsLinearGradient17491" x1="129.636" y1="79.822" x2="127.91" y2="81.879" gradientTransform="matrix(1 0 0 1 -52 0)" gradientUnits="userSpaceOnUse" class="svga-on-canvas-eyesiris-gradient-left-7"><stop id="SvgjsStop17492" stop-opacity="1" stop-color="#ffffff" offset="0" ></stop><stop id="SvgjsStop17493" stop-opacity="0" stop-color="#ffffff" offset="1" ></stop></linearGradient><radialGradient id="SvgjsRadialGradient17500" cx="-582.833" cy="-519.102" r="59.747" gradientTransform="matrix(0.0991 8.856319e-004 -0.0011 0.0991 183.1126 135.9856)" gradientUnits="userSpaceOnUse" class="svga-on-canvas-eyesiris-gradient-right-2"><stop id="SvgjsStop17501" stop-opacity="1" stop-color="#ffffff" offset="0" ></stop><stop id="SvgjsStop17502" stop-opacity="0" stop-color="#ffffff" offset="1" ></stop></radialGradient><linearGradient id="SvgjsLinearGradient17506" x1="122.67" y1="88.268" x2="123.606" y2="87.152" gradientUnits="userSpaceOnUse" class="svga-on-canvas-eyesiris-gradient-right-5"><stop id="SvgjsStop17507" stop-opacity="1" stop-color="#ffffff" offset="0" ></stop><stop id="SvgjsStop17508" stop-opacity="0" stop-color="#ffffff" offset="1" ></stop></linearGradient><linearGradient id="SvgjsLinearGradient17510" x1="127.212" y1="82.296" x2="126.463" y2="83.189" gradientUnits="userSpaceOnUse" class="svga-on-canvas-eyesiris-gradient-right-6"><stop id="SvgjsStop17511" stop-opacity="1" stop-color="#ffffff" offset="0" ></stop><stop id="SvgjsStop17512" stop-opacity="0" stop-color="#ffffff" offset="1" ></stop></linearGradient><linearGradient id="SvgjsLinearGradient17514" x1="129.636" y1="79.822" x2="127.91" y2="81.879" gradientUnits="userSpaceOnUse" class="svga-on-canvas-eyesiris-gradient-right-7"><stop id="SvgjsStop17515" stop-opacity="1" stop-color="#ffffff" offset="0" ></stop><stop id="SvgjsStop17516" stop-opacity="0" stop-color="#ffffff" offset="1" ></stop></linearGradient><radialGradient id="SvgjsRadialGradient17580" cx="127.199" cy="84.835" r="14" gradientTransform="matrix(-1 0 0 1 200 0)" gradientUnits="userSpaceOnUse" class="svga-on-canvas-eyesback-gradient-left-0"><stop id="SvgjsStop17581" stop-opacity="1" stop-color="#ffffff" offset="0" ></stop><stop id="SvgjsStop17582" stop-opacity="1" stop-color="#fdfefe" offset="0.544" ></stop><stop id="SvgjsStop17583" stop-opacity="1" stop-color="#f6f8f9" offset="0.74" ></stop><stop id="SvgjsStop17584" stop-opacity="1" stop-color="#eaeff2" offset="0.879" ></stop><stop id="SvgjsStop17585" stop-opacity="1" stop-color="#d9e3e8" offset="0.992" ></stop><stop id="SvgjsStop17586" stop-opacity="1" stop-color="#d8e2e7" offset="1" ></stop></radialGradient><radialGradient id="SvgjsRadialGradient17588" cx="126.801" cy="84.835" r="14" gradientUnits="userSpaceOnUse" class="svga-on-canvas-eyesback-gradient-right-0"><stop id="SvgjsStop17589" stop-opacity="1" stop-color="#ffffff" offset="0" ></stop><stop id="SvgjsStop17590" stop-opacity="1" stop-color="#fdfefe" offset="0.544" ></stop><stop id="SvgjsStop17591" stop-opacity="1" stop-color="#f6f8f9" offset="0.74" ></stop><stop id="SvgjsStop17592" stop-opacity="1" stop-color="#eaeff2" offset="0.879" ></stop><stop id="SvgjsStop17593" stop-opacity="1" stop-color="#d9e3e8" offset="0.992" ></stop><stop id="SvgjsStop17594" stop-opacity="1" stop-color="#d8e2e7" offset="1" ></stop></radialGradient><radialGradient id="SvgjsRadialGradient17596" cx="127.199" cy="84.835" r="14" gradientTransform="matrix(-1 0 0 1 200 0)" gradientUnits="userSpaceOnUse" class="svga-on-canvas-eyesfront-gradient-left-0"><stop id="SvgjsStop17597" stop-opacity="1" stop-color="#ffffff" offset="0" ></stop><stop id="SvgjsStop17598" stop-opacity="1" stop-color="#fdfefe" offset="0.544" ></stop><stop id="SvgjsStop17599" stop-opacity="1" stop-color="#f6f8f9" offset="0.74" ></stop><stop id="SvgjsStop17600" stop-opacity="1" stop-color="#eaeff2" offset="0.879" ></stop><stop id="SvgjsStop17601" stop-opacity="1" stop-color="#d9e3e8" offset="0.992" ></stop><stop id="SvgjsStop17602" stop-opacity="1" stop-color="#d8e2e7" offset="1" ></stop></radialGradient><radialGradient id="SvgjsRadialGradient17606" cx="125.36" cy="83.943" fx="138.934" fy="82.45" r="18.705" gradientTransform="matrix(0.9998 0.0208 0.0131 -0.6281 -51.791 134.0611)" gradientUnits="userSpaceOnUse" class="svga-on-canvas-eyesfront-gradient-left-3"><stop id="SvgjsStop17607" stop-opacity="1" stop-color="#be8a67" offset="0" ></stop><stop id="SvgjsStop17608" stop-opacity="0.3" stop-color="#be8a67" offset="0.7" ></stop><stop id="SvgjsStop17609" stop-opacity="0" stop-color="#cda184" offset="1" ></stop></radialGradient><radialGradient id="SvgjsRadialGradient17611" cx="67.679" cy="106.859" r="29.505" gradientTransform="matrix(1.0322 -0.0541 0.0541 1.0322 -5.894 5.3941)" gradientUnits="userSpaceOnUse" class="svga-on-canvas-eyesfront-gradient-left-4"><stop id="SvgjsStop17612" stop-opacity="0" stop-color="#000000" offset="0.95" ></stop><stop id="SvgjsStop17613" stop-opacity="0.2" stop-color="#000000" offset="1" ></stop></radialGradient><radialGradient id="SvgjsRadialGradient17617" cx="126.801" cy="84.835" r="14" gradientUnits="userSpaceOnUse" class="svga-on-canvas-eyesfront-gradient-right-0"><stop id="SvgjsStop17618" stop-opacity="1" stop-color="#ffffff" offset="0" ></stop><stop id="SvgjsStop17619" stop-opacity="1" stop-color="#fdfefe" offset="0.544" ></stop><stop id="SvgjsStop17620" stop-opacity="1" stop-color="#f6f8f9" offset="0.74" ></stop><stop id="SvgjsStop17621" stop-opacity="1" stop-color="#eaeff2" offset="0.879" ></stop><stop id="SvgjsStop17622" stop-opacity="1" stop-color="#d9e3e8" offset="0.992" ></stop><stop id="SvgjsStop17623" stop-opacity="1" stop-color="#d8e2e7" offset="1" ></stop></radialGradient><radialGradient id="SvgjsRadialGradient17627" cx="124.961" cy="83.943" fx="138.535" fy="82.45" r="18.705" gradientTransform="matrix(-0.9998 0.0208 -0.0131 -0.6281 250.9922 134.0695)" gradientUnits="userSpaceOnUse" class="svga-on-canvas-eyesfront-gradient-right-3"><stop id="SvgjsStop17628" stop-opacity="1" stop-color="#be8a67" offset="0" ></stop><stop id="SvgjsStop17629" stop-opacity="0.3" stop-color="#be8a67" offset="0.7" ></stop><stop id="SvgjsStop17630" stop-opacity="0" stop-color="#cda184" offset="1" ></stop></radialGradient><radialGradient id="SvgjsRadialGradient17632" cx="68.065" cy="106.876" r="29.506" gradientTransform="matrix(-1.0322 -0.0541 -0.0541 1.0322 205.8938 5.3986)" gradientUnits="userSpaceOnUse" class="svga-on-canvas-eyesfront-gradient-right-4"><stop id="SvgjsStop17633" stop-opacity="0" stop-color="#000000" offset="0.95" ></stop><stop id="SvgjsStop17634" stop-opacity="0.2" stop-color="#000000" offset="1" ></stop></radialGradient><linearGradient id="SvgjsLinearGradient17639" x1="127.637" y1="79.822" x2="125.91" y2="81.88" gradientTransform="matrix(1 0 0 1 -50 0)" gradientUnits="userSpaceOnUse" class="svga-on-canvas-eyesiris-gradient-left-1"><stop id="SvgjsStop17640" stop-opacity="1" stop-color="#ffffff" offset="0" ></stop><stop id="SvgjsStop17641" stop-opacity="0" stop-color="#ffffff" offset="1" ></stop></linearGradient><linearGradient id="SvgjsLinearGradient17644" x1="129.637" y1="79.823" x2="127.91" y2="81.881" gradientUnits="userSpaceOnUse" class="svga-on-canvas-eyesiris-gradient-right-1"><stop id="SvgjsStop17645" stop-opacity="1" stop-color="#ffffff" offset="0" ></stop><stop id="SvgjsStop17646" stop-opacity="0" stop-color="#ffffff" offset="1" ></stop></linearGradient><linearGradient id="SvgjsLinearGradient17650" x1="100" y1="70" x2="100" y2="108" gradientUnits="userSpaceOnUse" class="svga-on-canvas-glasses-gradient-single-0"><stop id="SvgjsStop17651" stop-opacity="1" stop-color="#0d170a" offset="0" ></stop><stop id="SvgjsStop17652" stop-opacity="0.5" stop-color="#0d170a" offset="1" ></stop></linearGradient><linearGradient id="SvgjsLinearGradient17658" x1="100" y1="140" x2="100" y2="137" gradientUnits="userSpaceOnUse" class="svga-on-canvas-mouth-gradient-single-0"><stop id="SvgjsStop17659" stop-opacity="1" stop-color="#c59575" offset="0.1" ></stop><stop id="SvgjsStop17660" stop-opacity="1" stop-color="#be8a67" offset="1" ></stop></linearGradient><linearGradient id="SvgjsLinearGradient17689" x1="100" y1="170" x2="100" y2="122" gradientUnits="userSpaceOnUse" class="svga-on-canvas-chinshadow-gradient-single-0"><stop id="SvgjsStop17690" stop-opacity="0.8" stop-color="#be8a67" offset="0" ></stop><stop id="SvgjsStop17691" stop-opacity="1" stop-color="#9f6037" offset="0.7" ></stop></linearGradient></defs></svg>