<svg width="40" height="21" viewBox="0 0 40 21" fill="none" xmlns="http://www.w3.org/2000/svg">
<path d="M7.46374 7.37356C7.5389 7.32817 7.55921 7.24331 7.50915 7.18201C7.41067 7.06146 7.20717 7.03501 7.05988 7.12488C5.83383 7.873 4.74366 8.65387 3.81215 9.44852C0.917239 11.9181 -0.501033 14.5744 0.436394 16.8013C1.37356 19.0275 4.44442 20.2996 8.51432 20.6224C12.6012 20.9466 17.7785 20.3245 23.0839 18.6894C28.3892 17.0543 32.8412 14.7087 35.7481 12.2289C38.643 9.75931 40.0613 7.10298 39.1239 4.87612C38.1867 2.64988 35.1159 1.37784 31.046 1.055C30.3875 1.00276 29.7006 0.975093 28.9895 0.972271C28.8611 0.971761 28.753 1.05751 28.7478 1.1631C28.7419 1.28108 28.854 1.37654 28.9975 1.37725C29.6833 1.38066 30.3452 1.40768 30.9794 1.45799C34.9934 1.7764 37.8131 3.01665 38.6572 5.02177C39.501 7.02626 38.2539 9.51917 35.3995 11.9542C32.5571 14.379 28.1759 16.6933 22.9269 18.3111C17.6778 19.9288 12.5779 20.5365 8.58091 20.2194C4.56691 19.901 1.74715 18.6608 0.903069 16.6556C0.0592548 14.6512 1.30638 12.1582 4.16078 9.72322C5.10136 8.92083 6.21045 8.13053 7.46374 7.37356Z" fill="currentColor"/>
</svg>
