<svg preserveAspectRatio="none" viewBox="0 0 182 161" fill="none" xmlns="http://www.w3.org/2000/svg" style="transform: rotate(8deg);">
<path d="M44.7568 91.5919C45.0986 91.4112 45.2261 90.9846 45.0376 90.6472V90.6472V90.6472C44.9575 90.5039 44.7761 90.4514 44.6309 90.5278C15.1737 106.023 -2.55767 125.937 2.17278 141.268C8.57844 162.029 53.7462 166.525 103.058 151.31C152.369 136.095 187.152 106.931 180.746 86.17C176.801 73.3853 158.157 66.7687 132.898 67.1248C132.709 67.1275 132.555 67.2812 132.555 67.4698V67.4698V67.4698C132.555 67.8326 132.852 68.1251 133.215 68.1208C137.818 68.066 142.194 68.2454 146.294 68.6535C155.344 69.5542 162.994 71.5642 168.75 74.5882C174.5 77.6098 178.291 81.6039 179.79 86.4648C181.29 91.3258 180.409 96.7614 177.361 102.498C174.31 108.239 169.122 114.21 162.153 120.053C148.219 131.737 127.323 142.776 102.763 150.354C78.2029 157.932 54.7192 160.586 36.6246 158.785C27.5751 157.884 19.9243 155.874 14.1692 152.85C8.4188 149.828 4.62816 145.834 3.12833 140.973C1.62851 136.112 2.50964 130.677 5.55778 124.941C8.60845 119.199 13.7967 113.228 20.7654 107.385C27.3315 101.879 35.4438 96.5167 44.7568 91.5919Z" fill="currentColor"/>
<path d="M43.4852 25.1135C43.8269 24.9328 43.9545 24.5062 43.7659 24.1687V24.1687V24.1687C43.6859 24.0255 43.5044 23.973 43.3592 24.0494C13.9021 39.5443 -3.82933 59.4584 0.901115 74.7898C7.30678 95.5505 52.4746 100.046 101.786 84.8313C151.098 69.6163 185.88 40.4523 179.474 19.6916C175.53 6.90686 156.885 0.290244 131.626 0.646388C131.437 0.649047 131.284 0.802781 131.283 0.991402V0.991402V0.991402C131.283 1.3542 131.58 1.64667 131.943 1.64235C136.546 1.58757 140.923 1.76695 145.022 2.17502C154.072 3.07576 161.723 5.08573 167.478 8.10978C173.228 11.1313 177.019 15.1255 178.519 19.9864C180.019 24.8473 179.137 30.2829 176.089 36.0192C173.039 41.7603 167.85 47.7317 160.882 53.5748C146.948 65.2582 126.051 76.2978 101.491 83.8757C76.9313 91.4537 53.4476 94.1074 35.353 92.3063C26.3034 91.4056 18.6526 89.3956 12.8975 86.3716C7.14713 83.35 3.35649 79.3559 1.85666 74.495C0.356841 69.634 1.23797 64.1984 4.28612 58.4621C7.33679 52.7211 12.525 46.7497 19.4937 40.9065C26.0599 35.401 34.1721 30.0383 43.4852 25.1135Z" fill="currentColor"/>
<path d="M44.5214 55.6901C44.8631 55.5094 44.9906 55.0827 44.8021 54.7453V54.7453V54.7453C44.722 54.602 44.5406 54.5496 44.3954 54.6259C14.9382 70.1208 -2.79316 90.035 1.93729 105.366C8.34295 126.127 53.5107 130.623 102.822 115.408C152.134 100.193 186.916 71.0288 180.51 50.2681C176.566 37.4834 157.922 30.8668 132.662 31.2229C132.474 31.2256 132.32 31.3793 132.32 31.568V31.568V31.568C132.319 31.9308 132.616 32.2232 132.979 32.2189C137.582 32.1641 141.959 32.3435 146.059 32.7516C155.108 33.6523 162.759 35.6623 168.514 38.6863C174.264 41.7079 178.055 45.702 179.555 50.563C181.055 55.4239 180.174 60.8595 177.125 66.5958C174.075 72.3369 168.887 78.3083 161.918 84.1514C147.984 95.8347 127.088 106.874 102.528 114.452C77.9674 122.03 54.4837 124.684 36.3891 122.883C27.3396 121.982 19.6888 119.972 13.9337 116.948C8.1833 113.927 4.39266 109.932 2.89284 105.072C1.39301 100.211 2.27414 94.775 5.32229 89.0387C8.37296 83.2976 13.5612 77.3262 20.5299 71.4831C27.0961 65.9775 35.2083 60.6149 44.5214 55.6901Z" fill="currentColor"/>
</svg>
